# Blender 5.0.0
# www.blender.org
mtllib Geiger3D.mtl
o Cubo
v -0.699949 0.002067 0.484053
v -0.699949 0.782558 0.484053
v -0.699949 0.002067 0.163048
v -0.699949 0.782558 0.163048
v 0.713167 0.002067 0.484053
v 0.713167 0.782558 0.484053
v 0.713167 0.002067 0.163048
v 0.713167 0.782558 0.163048
v -0.750235 0.805029 -0.134294
v -0.750235 0.002067 -0.134294
v 0.763453 0.002067 -0.134294
v 0.763453 0.805029 -0.134294
v -0.836953 0.843779 -0.431637
v -0.836953 0.002067 -0.431637
v 0.850171 0.002067 -0.431637
v 0.850171 0.843779 -0.431637
v -0.770694 0.931588 -0.862804
v -0.936854 0.002067 -0.509885
v 0.950072 0.002067 -0.509885
v 0.783911 0.931588 -0.862804
v -0.770694 0.931586 -1.764337
v -1.033469 0.002067 -2.111622
v 1.046687 0.002067 -2.111622
v 0.783911 0.931590 -1.764337
v -0.260540 0.931588 -2.575632
v -0.260540 0.002067 -2.575632
v 0.273758 0.002067 -2.575632
v 0.273758 0.931588 -2.575632
v -0.739739 0.002067 0.797045
v -0.739739 0.800339 0.797045
v 0.752957 0.800339 0.797045
v 0.752957 0.002067 0.797045
v -0.967191 0.002067 1.814269
v -0.967191 0.901978 1.814269
v 0.980409 0.901977 1.814269
v 0.980409 0.002067 1.814269
v 0.676107 0.002067 1.970664
v -0.733818 0.002067 1.954955
v 0.352333 0.002067 2.090298
v -0.029307 0.002067 2.165878
v -0.410713 0.002067 2.081797
v -0.733818 0.901978 1.954955
v 0.676108 0.901978 1.970664
v -0.410713 0.901978 2.081797
v -0.029307 0.901978 2.165878
v 0.352333 0.901978 2.090298
v -0.936854 0.931588 -0.509885
v 0.950072 0.931588 -0.509885
v -1.033469 0.931586 -2.111622
v 1.046687 0.931590 -2.111622
v -0.770694 0.823551 -0.862804
v 0.783911 0.823551 -0.862804
v -0.770694 0.823549 -1.764337
v 0.783911 0.823553 -1.764337
vn -1.0000 -0.0000 -0.0000
vn -0.0000 0.9972 0.0754
vn 1.0000 -0.0000 -0.0000
vn -0.0000 0.9984 -0.0567
vn -0.0000 -1.0000 -0.0000
vn -0.0000 1.0000 -0.0000
vn -0.9860 -0.0000 0.1668
vn 0.9860 -0.0000 0.1668
vn -0.0000 0.6653 0.7466
vn -0.0000 0.9916 0.1292
vn -0.9600 -0.0000 0.2800
vn 0.9600 -0.0000 0.2800
vn 0.9982 -0.0000 0.0602
vn -0.6166 -0.0000 0.7873
vn 0.6166 -0.0000 0.7873
vn -0.9982 -0.0000 0.0602
vn -0.0000 -0.0000 -1.0000
vn -0.5147 -0.0000 -0.8574
vn 0.5147 -0.0000 -0.8574
vn -0.0000 0.9950 -0.0994
vn 0.9920 -0.0000 -0.1261
vn -0.9920 -0.0000 -0.1261
vn 0.9759 -0.0000 -0.2182
vn -0.9759 -0.0000 -0.2182
vn -0.3654 -0.0000 0.9308
vn -0.2153 -0.0000 0.9766
vn 0.1943 -0.0000 0.9809
vn 0.3466 -0.0000 0.9380
vn 0.4571 -0.0000 0.8894
vn -0.5163 -0.0000 0.8564
vn -0.0000 -0.0000 1.0000
vt 0.000094 0.195618
vt 0.053815 0.195618
vt 0.053815 0.217712
vt 0.000094 0.217712
vt 0.607418 0.591803
vt 0.910563 0.591803
vt 0.921351 0.634662
vt 0.596630 0.634662
vt 0.000094 0.775195
vt 0.053815 0.775195
vt 0.053815 0.797290
vt 0.000094 0.797290
vt 0.910563 0.545665
vt 0.607418 0.545665
vt 0.598882 0.500606
vt 0.919099 0.500606
vt 0.463930 0.597945
vt 0.160784 0.597945
vt 0.160784 0.551806
vt 0.463930 0.551806
vt 0.149997 0.640682
vt 0.474717 0.640682
vt 0.493321 0.683419
vt 0.131394 0.683419
vt 0.055361 0.238820
vt 0.000094 0.238820
vt 0.000094 0.754087
vt 0.055361 0.754087
vt 0.578027 0.677761
vt 0.939954 0.677761
vt 0.961385 0.694666
vt 0.556596 0.694666
vt 0.058029 0.261141
vt 0.000094 0.261141
vt 0.000094 0.731766
vt 0.058029 0.731766
vt 0.064072 0.720176
vt 0.000094 0.720176
vt 0.000094 0.609483
vt 0.064073 0.609483
vt 0.064072 0.272731
vt 0.000094 0.272731
vt 0.514752 0.694666
vt 0.109963 0.694666
vt 0.535870 0.924885
vt 0.982111 0.924885
vt 0.816300 0.991577
vt 0.701681 0.991577
vt 0.535478 0.924885
vt 0.089237 0.924885
vt 0.081839 0.457280
vt 0.081839 0.395228
vt 0.089275 0.395228
vt 0.089275 0.457280
vt 0.064072 0.383424
vt 0.000094 0.383424
vt 0.000094 0.469009
vt 0.064072 0.469009
vt 0.064072 0.523898
vt 0.000094 0.523898
vt 0.369667 0.991577
vt 0.255048 0.991577
vt 0.550088 0.353671
vt 0.967893 0.353671
vt 0.055039 0.819217
vt 0.000094 0.819217
vt 0.000094 0.173690
vt 0.055039 0.173690
vt 0.152248 0.506820
vt 0.472466 0.506820
vt 0.062034 0.893028
vt 0.000094 0.893028
vt 0.103454 0.360613
vt 0.521260 0.360613
vt 0.000094 0.099879
vt 0.062034 0.099879
vt 0.062034 0.074023
vt 0.000094 0.074023
vt 0.000094 0.039701
vt 0.062034 0.039701
vt 0.000094 0.000094
vt 0.062034 0.000094
vt 0.062034 0.999906
vt 0.000094 0.999906
vt 0.000094 0.960356
vt 0.062034 0.960356
vt 0.000094 0.926091
vt 0.062034 0.926091
vt 0.168734 0.338135
vt 0.238191 0.320939
vt 0.320062 0.310076
vt 0.401882 0.322161
vt 0.471196 0.340392
vt 0.600152 0.333451
vt 0.669465 0.315220
vt 0.751285 0.303134
vt 0.833156 0.313998
vt 0.902613 0.331193
vt 0.925740 0.745391
vt 0.592241 0.745391
vt 0.592241 0.874969
vt 0.925740 0.874969
vt 0.361748 0.027594
vt 0.974965 0.027595
vt 0.974965 0.265855
vt 0.361748 0.265855
vt 0.081839 0.173471
vt 0.081839 0.013766
vt 0.089275 0.013766
vt 0.089275 0.173471
vt 0.081839 0.235523
vt 0.089275 0.235523
s 0
f 1/1/1 2/2/1 4/3/1 3/4/1
f 4/5/2 8/6/2 12/7/2 9/8/2
f 7/9/3 8/10/3 6/11/3 5/12/3
f 6/13/4 2/14/4 30/15/4 31/16/4
f 3/17/5 7/18/5 5/19/5 1/20/5
f 8/6/6 4/5/6 2/14/6 6/13/6
f 11/21/5 10/22/5 14/23/5 15/24/5
f 3/4/7 4/3/7 9/25/7 10/26/7
f 8/10/8 7/9/8 11/27/8 12/28/8
f 7/18/5 3/17/5 10/22/5 11/21/5
f 13/29/9 16/30/9 48/31/9 47/32/9
f 9/8/10 12/7/10 16/30/10 13/29/10
f 10/26/11 9/25/11 13/33/11 14/34/11
f 12/28/12 11/27/12 15/35/12 16/36/12
f 48/37/13 19/38/13 23/39/13 50/40/13
f 14/34/14 13/33/14 47/41/14 18/42/14
f 16/36/15 15/35/15 19/38/15 48/37/15
f 15/24/5 14/23/5 18/43/5 19/44/5
f 49/45/6 50/46/6 28/47/6 25/48/6
f 19/44/5 18/43/5 22/49/5 23/50/5
f 20/51/1 24/52/1 54/53/1 52/54/1
f 18/42/16 47/41/16 49/55/16 22/56/16
f 26/57/17 25/58/17 28/59/17 27/60/17
f 22/56/18 49/55/18 25/58/18 26/57/18
f 50/40/19 23/39/19 27/60/19 28/59/19
f 23/50/5 22/49/5 26/61/5 27/62/5
f 31/16/20 30/15/20 34/63/20 35/64/20
f 5/12/21 6/11/21 31/65/21 32/66/21
f 2/2/22 1/1/22 29/67/22 30/68/22
f 1/20/5 5/19/5 32/69/5 29/70/5
f 32/66/23 31/65/23 35/71/23 36/72/23
f 29/70/5 32/69/5 36/73/5 33/74/5
f 30/68/24 29/67/24 33/75/24 34/76/24
f 42/77/25 38/78/25 41/79/25 44/80/25
f 44/80/26 41/79/26 40/81/26 45/82/26
f 45/83/27 40/84/27 39/85/27 46/86/27
f 46/86/28 39/85/28 37/87/28 43/88/28
f 36/72/29 35/71/29 43/88/29 37/87/29
f 36/73/5 37/89/5 39/90/5 40/91/5 41/92/5 38/93/5 33/74/5
f 33/75/30 38/78/30 42/77/30 34/76/30
f 35/64/6 34/63/6 42/94/6 44/95/6 45/96/6 46/97/6 43/98/6
f 20/99/6 17/100/6 47/32/6 48/31/6
f 21/101/6 24/102/6 50/46/6 49/45/6
f 24/102/6 20/99/6 48/31/6 50/46/6
f 17/100/6 21/101/6 49/45/6 47/32/6
f 51/103/6 52/104/6 54/105/6 53/106/6
f 17/107/17 20/108/17 52/109/17 51/110/17
f 21/111/3 17/107/3 51/110/3 53/112/3
f 24/52/31 21/111/31 53/112/31 54/53/31
